<?xml version="1.0" encoding="utf-8"?>
<!-- Generator: Adobe Illustrator 15.1.0, SVG Export Plug-In . SVG Version: 6.00 Build 0)  -->
<!DOCTYPE svg PUBLIC "-//W3C//DTD SVG 1.1//EN" "http://www.w3.org/Graphics/SVG/1.1/DTD/svg11.dtd">
<svg version="1.1" xmlns="http://www.w3.org/2000/svg" xmlns:xlink="http://www.w3.org/1999/xlink" x="0px" y="0px" width="594px"
	 height="425.81px" viewBox="0 0 594 425.81" enable-background="new 0 0 594 425.81" xml:space="preserve">
<g id="Layer_1">
	<path fill="#EDFF1F" d="M120,261v85.595c0,4.228,9.188,9.405,18.632,9.405h18.806c9.442,0,15.562-5.178,15.562-9.405V261H120z"/>
	<path fill="#EDFF1F" d="M420,261v85.595c0,4.228,9.188,9.405,18.632,9.405h18.806c9.443,0,15.562-5.178,15.562-9.405V261H420z"/>
	<path fill="#8DA886" stroke="#8DA886" stroke-width="2" stroke-linecap="round" stroke-miterlimit="10" d="M447.5,219
		c-4.694,0-8.5,3.806-8.5,8.5V239h17v-11.5C456,222.806,452.194,219,447.5,219z"/>
	<path fill="#8DA886" stroke="#8DA886" stroke-width="2" stroke-linecap="round" stroke-miterlimit="10" d="M349,82.5
		c0,4.694-3.806,8.5-8.5,8.5h-84c-4.694,0-8.5-3.806-8.5-8.5l0,0c0-4.694,3.806-8.5,8.5-8.5h84C345.194,74,349,77.806,349,82.5
		L349,82.5z"/>
	<path fill="#8DA886" stroke="#8DA886" stroke-width="2" stroke-linecap="round" stroke-miterlimit="10" d="M145.5,218
		c-4.694,0-8.5,3.806-8.5,8.5V238h17v-11.5C154,221.806,150.194,218,145.5,218z"/>
	<path fill="none" stroke="#8DA886" stroke-width="5" stroke-linecap="round" stroke-miterlimit="10" d="M146.5,273V142.5
		c0-33.137,26.863-60,60-60h181c33.137,0,60,26.863,60,60V273"/>
	<g>
		<g>
			<path fill="none" stroke="#9175AA" stroke-width="4" stroke-linecap="round" stroke-miterlimit="10" d="M467.818,132.729
				C462.995,93.208,429.305,62.5,388.5,62.5"/>
			<g>
				<path fill="#9175AA" d="M467.547,130.595l-4.503-2.31l-0.087,0.154l3.303,6.829c0.717,2.411,1.434,4.821,2.15,7.232
					c0.361-2.489,0.723-4.978,1.084-7.467l2.283-7.234l-0.085-0.142L467.547,130.595z"/>
			</g>
		</g>
	</g>
	<path fill="none" d="M393,59c46,2,78,31,80,74"/>
	<text transform="matrix(0.9806 0.1961 -0.1961 0.9806 405.9189 56.1816)"><tspan x="0" y="0" fill="#7C688E" font-family="'HelveticaNeue'" font-size="16">e</tspan><tspan x="8.667" y="0.078" fill="#7C688E" font-family="'HelveticaNeue'" font-size="16" rotate="3.488">l</tspan><tspan x="12.308" y="0.22" fill="#7C688E" font-family="'HelveticaNeue'" font-size="16" rotate="7.155">e</tspan><tspan x="20.954" y="1.307" fill="#7C688E" font-family="'HelveticaNeue'" font-size="16" rotate="12.644">c</tspan><tspan x="29.414" y="3.28" fill="#7C688E" font-family="'HelveticaNeue'" font-size="16" rotate="17.247">t</tspan><tspan x="34.291" y="4.79" fill="#7C688E" font-family="'HelveticaNeue'" font-size="16" rotate="20.88">r</tspan><tspan x="39.406" y="6.649" fill="#7C688E" font-family="'HelveticaNeue'" font-size="16" rotate="26.16">o</tspan><tspan x="47.791" y="10.785" fill="#7C688E" font-family="'HelveticaNeue'" font-size="16" rotate="32.997">n</tspan><tspan x="55.277" y="15.77" fill="#7C688E" font-family="'HelveticaNeue'" font-size="16" rotate="38.148"> </tspan><tspan x="58.852" y="18.576" fill="#7C688E" font-family="'HelveticaNeue'" font-size="16" rotate="41.742">f</tspan><tspan x="62.413" y="21.778" fill="#7C688E" font-family="'HelveticaNeue'" font-size="16" rotate="44.963">l</tspan><tspan x="65.096" y="24.294" fill="#7C688E" font-family="'HelveticaNeue'" font-size="16" rotate="49.917">o</tspan><tspan x="71.19" y="31.402" fill="#7C688E" font-family="'HelveticaNeue'" font-size="16" rotate="57.989">w</tspan></text>
	<g>
		<g>
			<path fill="none" stroke="#9175AA" stroke-width="4" stroke-linecap="round" stroke-miterlimit="10" d="M125.5,143.5
				c0-40.805,30.63-74.572,70.139-79.406"/>
			<g>
				<path fill="#9175AA" d="M193.505,64.366l-2.937-4.122l0.14-0.108l7.235,2.281c2.489,0.361,4.978,0.721,7.467,1.083
					c-2.411,0.717-4.821,1.434-7.232,2.151l-6.828,3.304l-0.153-0.063L193.505,64.366z"/>
			</g>
		</g>
	</g>
	<path fill="none" d="M119.5,137.5c0-44.112,35.798-80,79.91-80"/>
	<text transform="matrix(0.2181 -0.9759 0.9759 0.2181 116.5835 123.3193)"><tspan x="0" y="0" fill="#7C688E" font-family="'HelveticaNeue'" font-size="16">e</tspan><tspan x="8.684" y="0.096" fill="#7C688E" font-family="'HelveticaNeue'" font-size="16" rotate="4.234">l</tspan><tspan x="12.311" y="0.274" fill="#7C688E" font-family="'HelveticaNeue'" font-size="16" rotate="8.454">e</tspan><tspan x="20.967" y="1.57" fill="#7C688E" font-family="'HelveticaNeue'" font-size="16" rotate="14.443">c</tspan><tspan x="29.364" y="3.812" fill="#7C688E" font-family="'HelveticaNeue'" font-size="16" rotate="19.159">t</tspan><tspan x="34.185" y="5.485" fill="#7C688E" font-family="'HelveticaNeue'" font-size="16" rotate="22.726">r</tspan><tspan x="39.22" y="7.507" fill="#7C688E" font-family="'HelveticaNeue'" font-size="16" rotate="27.709">o</tspan><tspan x="47.485" y="11.867" fill="#7C688E" font-family="'HelveticaNeue'" font-size="16" rotate="33.935">n</tspan><tspan x="54.895" y="16.965" fill="#7C688E" font-family="'HelveticaNeue'" font-size="16" rotate="38.524"> </tspan><tspan x="58.411" y="19.76" fill="#7C688E" font-family="'HelveticaNeue'" font-size="16" rotate="41.671">f</tspan><tspan x="62.004" y="22.981" fill="#7C688E" font-family="'HelveticaNeue'" font-size="16" rotate="44.552">l</tspan><tspan x="64.679" y="25.468" fill="#7C688E" font-family="'HelveticaNeue'" font-size="16" rotate="48.963">o</tspan><tspan x="70.886" y="32.47" fill="#7C688E" font-family="'HelveticaNeue'" font-size="16" rotate="56.381">w</tspan></text>
	<path fill="#CCCCCC" stroke="#999999" stroke-width="5" stroke-linecap="round" stroke-miterlimit="10" d="M161.5,337.408
		c0,4.07-3.977,8.092-9.5,8.092h-11c-5.523,0-10.5-4.021-10.5-8.092V236.447c0-4.07,4.977-6.947,10.5-6.947h11
		c5.523,0,9.5,2.877,9.5,6.947V337.408z"/>
	<path fill="#CCCCCC" stroke="#999999" stroke-width="5" stroke-linecap="round" stroke-miterlimit="10" d="M461.5,337.408
		c0,4.07-3.977,8.092-9.5,8.092h-11c-5.523,0-10.5-4.021-10.5-8.092V236.447c0-4.07,4.977-6.947,10.5-6.947h11
		c5.523,0,9.5,2.877,9.5,6.947V337.408z"/>
	<g>
		<path opacity="0.51" fill="#29ABE2" d="M248,388c0,2.485-0.239,7-3,7H117c-2.761,0-7-4.515-7-7V251c0,3.15,6.5,10,12,10h116
			c6,0,10-7.3,10-10V388z"/>
		<path fill="none" stroke="#507E96" stroke-width="6" stroke-linecap="round" stroke-miterlimit="10" d="M255.25,206.5
			c-2.761,0-6.25,3.239-6.25,6v177c0,2.762-5.739,7.5-8.5,7.5h-122c-2.761,0-7.5-4.738-7.5-7.5v-177c0-2.761-2.614-6-5.375-6"/>
	</g>
	<g>
		<path opacity="0.51" fill="#29ABE2" d="M485,388c0,2.485-0.238,7-3,7H354c-2.762,0-7-4.515-7-7V251c0,3.15,6.5,10,12,10h116
			c6,0,10-7.3,10-10V388z"/>
		<path fill="none" stroke="#507E96" stroke-width="6" stroke-linecap="round" stroke-miterlimit="10" d="M492.25,206.5
			c-2.762,0-6.25,3.239-6.25,6v177c0,2.762-5.738,7.5-8.5,7.5h-122c-2.762,0-7.5-4.738-7.5-7.5v-177c0-2.761-2.613-6-5.375-6"/>
	</g>
	<g>
		<path opacity="0.5" fill="#A9C0F7" d="M368,291v-71c0-22.091-14.908-37-37-37h-58c-22.092,0-43,14.909-43,37v71h-40v-71
			c0-44.112,38.888-77,83-77h58c44.112,0,77,32.888,77,77v71H368z"/>
		<path fill="none" stroke="#507E96" stroke-width="6" stroke-linecap="round" stroke-miterlimit="10" d="M190,290v-68
			c0-44.112,35.888-80,80-80h58c44.112,0,80,35.888,80,80v68"/>
		<path fill="none" stroke="#507E96" stroke-width="6" stroke-linecap="round" stroke-miterlimit="10" d="M230,290v-68
			c0-22.091,17.909-40,40-40h58c22.092,0,40,17.909,40,40v68"/>
	</g>
	<g>
		<path fill="#FCEE21" stroke="#FBB03B" stroke-width="5" stroke-linecap="round" stroke-miterlimit="10" d="M338.5,92.5
			c0,5.522-4.477,10-10,10h-59c-5.523,0-10-4.478-10-10v-60c0-5.523,4.477-10,10-10h59c5.523,0,10,4.477,10,10V92.5z"/>
		<path fill="#F2F2F2" stroke="#F7931E" stroke-width="4" stroke-linecap="round" stroke-miterlimit="10" d="M327,64.577
			c0,4.679-2.914,8.423-6.575,8.423h-41.093c-3.66,0-7.332-3.744-7.332-8.423V41.703c0-4.679,3.671-7.703,7.332-7.703h41.093
			c3.661,0,6.575,3.024,6.575,7.703V64.577z"/>
		<path fill="none" stroke="#999999" stroke-width="2" stroke-linecap="round" stroke-miterlimit="10" d="M278.667,58.667
			c0-9.573,9.85-17.333,22-17.333c12.149,0,21.999,7.76,21.999,17.333"/>
		<rect x="323.334" y="74.667" fill="none" width="13.332" height="18.667"/>
		<text transform="matrix(1 0 0 1 323.334 88.4243)" fill="#8C6239" font-family="'Helvetica-Bold'" font-size="16">+</text>
		<rect x="314.584" y="54.25" fill="none" width="13.333" height="18.667"/>
		<text transform="matrix(1 0 0 1 314.584 62.8486)" fill="#666666" font-family="'Helvetica-Bold'" font-size="10">+</text>
		<rect x="297.334" y="43" fill="none" width="13.333" height="18.667"/>
		<text transform="matrix(1 0 0 1 297.334 50.7388)" fill="#666666" font-family="'Helvetica-Bold'" font-size="9">0</text>
		<rect x="264.001" y="74.667" fill="none" width="13.332" height="18.667"/>
		<text transform="matrix(1 0 0 1 264.0005 88.4243)" fill="#8C6239" font-family="'Helvetica-Bold'" font-size="16">–</text>
		<rect x="281.501" y="54.417" fill="none" width="13.332" height="18.667"/>
		<text transform="matrix(1 0 0 1 281.5005 63.0151)" fill="#666666" font-family="'Helvetica-Bold'" font-size="10">–</text>
		<path fill="#9B484E" d="M302.242,65.059c-1.039,1.524-3.117,1.917-4.641,0.878c-1.524-1.039-1.917-3.117-0.878-4.642
			c0.578-0.848,1.586-1.505,2.533-1.601c0.72-0.798,14.443-18.487,14.443-18.487l0.729,0.497c0,0-11.251,18.679-11.867,19.782
			C303.103,62.542,302.957,64.011,302.242,65.059z"/>
		
			<line fill="none" stroke="#999999" stroke-width="2" stroke-linecap="round" stroke-miterlimit="10" x1="283.586" y1="44.586" x2="286.414" y2="47.414"/>
		
			<line fill="none" stroke="#999999" stroke-width="2" stroke-linecap="round" stroke-miterlimit="10" x1="300" y1="39" x2="300" y2="43"/>
		
			<line fill="none" stroke="#999999" stroke-width="2" stroke-linecap="round" stroke-miterlimit="10" x1="319.414" y1="46.586" x2="316.586" y2="49.414"/>
	</g>
	<rect x="441" y="241.5" fill="none" width="15" height="96"/>
	<text transform="matrix(1 0 0 1 441 254.3555)"><tspan x="0" y="0" fill="#FFFFFF" font-family="'HelveticaNeue-Bold'" font-size="15">+</tspan><tspan x="0" y="18" fill="#FFFFFF" font-family="'HelveticaNeue-Bold'" font-size="15">+</tspan><tspan x="0" y="36" fill="#FFFFFF" font-family="'HelveticaNeue-Bold'" font-size="15">+</tspan><tspan x="0" y="54" fill="#FFFFFF" font-family="'HelveticaNeue-Bold'" font-size="15">+</tspan><tspan x="0" y="72" fill="#FFFFFF" font-family="'HelveticaNeue-Bold'" font-size="15">+</tspan></text>
	<rect x="140.5" y="240" fill="none" width="15" height="96"/>
	<text transform="matrix(1 0 0 1 140.5 252.8555)"><tspan x="0" y="0" fill="#FFFFFF" font-family="'HelveticaNeue-Bold'" font-size="15">–</tspan><tspan x="0" y="18" fill="#FFFFFF" font-family="'HelveticaNeue-Bold'" font-size="15">–</tspan><tspan x="0" y="36" fill="#FFFFFF" font-family="'HelveticaNeue-Bold'" font-size="15">–</tspan><tspan x="0" y="54" fill="#FFFFFF" font-family="'HelveticaNeue-Bold'" font-size="15">–</tspan><tspan x="0" y="72" fill="#FFFFFF" font-family="'HelveticaNeue-Bold'" font-size="15">–</tspan></text>
	<rect x="119" y="145" fill="none" width="20.5" height="28"/>
	<text transform="matrix(1 0 0 1 119 160.4258)"><tspan x="0" y="0" font-family="'HelveticaNeue'" font-size="18">e</tspan><tspan x="9.666" y="-4" font-family="'HelveticaNeue'" font-size="18">-</tspan></text>
	<rect x="462" y="143" fill="none" width="20.5" height="28"/>
	<text transform="matrix(1 0 0 1 462 158.4258)"><tspan x="0" y="0" font-family="'HelveticaNeue'" font-size="18">e</tspan><tspan x="9.666" y="-4" font-family="'HelveticaNeue'" font-size="18">-</tspan></text>
	<rect y="337" fill="none" width="93" height="63"/>
	<text transform="matrix(1 0 0 1 27.2256 346.7119)"><tspan x="0" y="0" font-family="'HelveticaNeue'" font-size="16">oxidation</tspan><tspan x="-19.856" y="19.2" font-family="'HelveticaNeue'" font-size="16">occurring at </tspan><tspan x="13.039" y="38.399" font-family="'HelveticaNeue'" font-size="16">surface</tspan></text>
	<rect x="501" y="336" fill="none" width="93" height="63"/>
	<text transform="matrix(1 0 0 1 501 345.7119)"><tspan x="0" y="0" font-family="'HelveticaNeue'" font-size="16">reduction</tspan><tspan x="0" y="19.2" font-family="'HelveticaNeue'" font-size="16">occurring at </tspan><tspan x="0" y="38.399" font-family="'HelveticaNeue'" font-size="16">surface</tspan></text>
	<line fill="none" stroke="#537024" stroke-width="2" stroke-miterlimit="10" x1="95" y1="342" x2="124" y2="318"/>
	<line fill="none" stroke="#537024" stroke-width="2" stroke-miterlimit="10" x1="469" y1="320" x2="497" y2="342"/>
	<line fill="none" stroke="#537024" stroke-width="2" stroke-miterlimit="10" x1="209" y1="308" x2="268" y2="323"/>
	<line fill="none" stroke="#537024" stroke-width="2" stroke-miterlimit="10" x1="389" y1="288" x2="331" y2="318"/>
	<g>
		<g>
			<path fill="none" stroke="#999999" stroke-width="7" stroke-miterlimit="10" d="M166,339c1.274,0.478,2.967,0.673,4.934,0.624"/>
			<path fill="none" stroke="#999999" stroke-width="7" stroke-miterlimit="10" stroke-dasharray="9.9019,9.9019" d="
				M180.682,338.01c9.451-2.587,19.924-7.977,23.318-14.01c9-16,6-66,6-93s15-67,50-69s51,1,76,1s49,28,49,50
				c0,26,0.083,88.444,14,107c2.699,3.599,7.22,5.983,11.377,7.519"/>
			<path fill="none" stroke="#999999" stroke-width="7" stroke-miterlimit="10" d="M415.106,328.989
				C417.971,329.729,420,330,420,330"/>
		</g>
	</g>
</g>
<g id="Layer_2">
	<rect x="262" fill="none" width="90" height="21"/>
	<text transform="matrix(1 0 0 1 262 15.4258)" font-family="'HelveticaNeue'" font-size="18">voltmeter</text>
	<rect x="76" y="177" fill="none" width="55" height="21"/>
	<text transform="matrix(1 0 0 1 76 192.4258)" font-family="'HelveticaNeue'" font-size="18">anode</text>
	<rect x="257" y="186" fill="none" width="95" height="21"/>
	<text transform="matrix(1 0 0 1 257 201.4258)" font-family="'HelveticaNeue'" font-size="18">salt bridge</text>
	<rect x="457" y="177" fill="none" width="78" height="21"/>
	<text transform="matrix(1 0 0 1 457 192.4258)" font-family="'HelveticaNeue'" font-size="18">cathode</text>
	<rect x="256" y="297" fill="none" width="84" height="34"/>
	<text transform="matrix(1 0 0 1 259.1934 306.7119)"><tspan x="0" y="0" font-family="'HelveticaNeue'" font-size="16">electrolytic</tspan><tspan x="13.471" y="19.2" font-family="'HelveticaNeue'" font-size="16">current</tspan></text>
	<text transform="matrix(1 0 0 1 508 421)" font-family="'HelveticaNeue'" font-size="10">mccord © 2014</text>
</g>
</svg>
